<svg id="Capa_1" data-name="Capa 1" xmlns="http://www.w3.org/2000/svg" viewBox="0 0 19.26 48"><defs><style>.cls-1{fill:#ff8100;}</style></defs><title>ic_temperature</title><path class="cls-1" d="M26.73,35.44V18.54a.8.8,0,1,0-1.59,0h0v16.9a4,4,0,1,0,4.74,3.12A4.09,4.09,0,0,0,26.73,35.44Z" transform="translate(-16.29 -1)"/><path class="cls-1" d="M22.72,5.72H21.11a.78.78,0,0,0-.8.79.79.79,0,0,0,.8.8h1.61a.79.79,0,0,0,.79-.8A.78.78,0,0,0,22.72,5.72Z" transform="translate(-16.29 -1)"/><path class="cls-1" d="M22.72,9.73H21.11a.8.8,0,1,0,0,1.59h1.61a.8.8,0,0,0,0-1.59Z" transform="translate(-16.29 -1)"/><path class="cls-1" d="M22.72,13.73H21.11a.8.8,0,1,0,0,1.59h1.61a.79.79,0,0,0,.79-.8A.8.8,0,0,0,22.72,13.73Z" transform="translate(-16.29 -1)"/><path class="cls-1" d="M22.72,17.74H21.11a.8.8,0,0,0,0,1.6h1.61a.8.8,0,0,0,0-1.6Z" transform="translate(-16.29 -1)"/><path class="cls-1" d="M22.72,21.74H21.11a.8.8,0,1,0,0,1.59h1.61a.79.79,0,0,0,.79-.79A.8.8,0,0,0,22.72,21.74Z" transform="translate(-16.29 -1)"/><path class="cls-1" d="M22.72,25.76H21.11a.8.8,0,0,0-.8.79.79.79,0,0,0,.8.8h1.61a.8.8,0,0,0,.79-.8A.79.79,0,0,0,22.72,25.76Z" transform="translate(-16.29 -1)"/><path class="cls-1" d="M22.72,29.75H21.11a.8.8,0,0,0-.8.8.78.78,0,0,0,.8.79h1.61a.79.79,0,0,0,.79-.79A.8.8,0,0,0,22.72,29.75Z" transform="translate(-16.29 -1)"/><path class="cls-1" d="M29.14,8.92h1.61a.8.8,0,0,0,.75-.84.78.78,0,0,0-.75-.75H29.14a.8.8,0,0,0,0,1.59Z" transform="translate(-16.29 -1)"/><path class="cls-1" d="M30.73,11.32H29.14a.8.8,0,0,0-.8.8.82.82,0,0,0,.8.81h1.61a.79.79,0,0,0,.79-.79.83.83,0,0,0-.81-.82Z" transform="translate(-16.29 -1)"/><path class="cls-1" d="M30.73,15.34H29.14a.8.8,0,1,0,0,1.59h1.61a.79.79,0,0,0,.79-.8.8.8,0,0,0-.81-.79Z" transform="translate(-16.29 -1)"/><path class="cls-1" d="M30.73,19.34H29.14a.78.78,0,0,0-.8.79.79.79,0,0,0,.8.8h1.61a.79.79,0,0,0,.79-.8.8.8,0,0,0-.81-.79Z" transform="translate(-16.29 -1)"/><path class="cls-1" d="M30.73,23.35H29.14a.8.8,0,1,0,0,1.59h1.61a.79.79,0,0,0,.79-.79.8.8,0,0,0-.81-.8Z" transform="translate(-16.29 -1)"/><path class="cls-1" d="M30.73,27.35H29.14a.8.8,0,1,0,0,1.59h1.61a.8.8,0,0,0,.79-.8.81.81,0,0,0-.81-.79Z" transform="translate(-16.29 -1)"/><path class="cls-1" d="M25.92,49h0a10.32,10.32,0,0,1-1.11-.06,9.61,9.61,0,0,1-4.5-17.36V6.51a5.62,5.62,0,0,1,11.23,0v25A9.62,9.62,0,0,1,33.74,45a9.72,9.72,0,0,1-7.82,4Zm0-46.49a4,4,0,0,0-4,4v25.9l-.37.23A8,8,0,1,0,32.63,35a8.1,8.1,0,0,0-2.35-2.35l-.37-.23V6.51A4,4,0,0,0,25.92,2.51Z" transform="translate(-16.29 -1)"/></svg>