<svg id="Capa_1" data-name="Capa 1" xmlns="http://www.w3.org/2000/svg" viewBox="0 0 300 300"><defs><style>.cls-1{fill:#ff8100;}</style></defs><title>ic_user</title><path class="cls-1" d="M149.89,14.39a136,136,0,0,1,96.17,232.16A136,136,0,1,1,53.73,54.22a135.1,135.1,0,0,1,96.16-39.83m0-14a150,150,0,1,0,150,150,150,150,0,0,0-150-150Z" transform="translate(0.11 -0.39)"/><path class="cls-1" d="M148.52,147.33A47.26,47.26,0,0,0,183.27,133a47.72,47.72,0,0,0,14.37-34.76,49.06,49.06,0,0,0-49.12-49.12A49,49,0,0,0,99.4,98.21a49,49,0,0,0,49.12,49.12Z" transform="translate(0.11 -0.39)"/><path class="cls-1" d="M234.81,205.89c-.33-3.92-.83-8.27-1.67-12.86A108.57,108.57,0,0,0,230,180.08,61.89,61.89,0,0,0,224.62,168a46.11,46.11,0,0,0-8-10.44,35.09,35.09,0,0,0-11.53-7.27,39.91,39.91,0,0,0-14.7-2.68h-.08c-2.09,0-4.1.92-8,3.43-2.43,1.59-5.27,3.34-8.36,5.35a44,44,0,0,1-10.77,4.76,46,46,0,0,1-13.2,2.09h-1.26a42.59,42.59,0,0,1-11.86-2.09A51.89,51.89,0,0,1,126,156.36c-3.09-1.93-5.93-3.76-8.35-5.35-3.93-2.51-5.93-3.34-8-3.34A40.42,40.42,0,0,0,95,150.34a35.26,35.26,0,0,0-11.53,7.27,46.63,46.63,0,0,0-8,10.44,64.63,64.63,0,0,0-5.35,12.11A118.54,118.54,0,0,0,65.23,206c-.25,3.84-.42,7.93-.42,12,0,10.69,3.34,19.3,10,25.64s15.28,9.44,25.89,9.44H199c10.61,0,19.3-3.17,25.9-9.44s10-15,10-25.64C234.89,213.91,234.73,209.82,234.81,205.89Z" transform="translate(0.11 -0.39)"/></svg>